<?xml version="1.0" encoding="utf-8"?>
<!-- Generator: Adobe Illustrator 23.1.1, SVG Export Plug-In . SVG Version: 6.00 Build 0)  -->
<svg version="1.1" id="Layer_1" xmlns="http://www.w3.org/2000/svg" xmlns:xlink="http://www.w3.org/1999/xlink" x="0px" y="0px"
	 viewBox="0 0 106 38" style="enable-background:new 0 0 106 38;" xml:space="preserve">
<path d="M12.3,0v0.6h3.5l-0.1,16.5c-0.4-1.2-1.1-2.2-2.2-3c-1-0.8-2.3-1.2-4-1.2c-1.3,0-2.5,0.3-3.6,0.9c-1.1,0.6-2.2,1.3-3,2.3
	c-0.9,0.9-1.6,2-2.1,3.3c-0.5,1.3-0.8,2.6-0.8,4c0,1.4,0.3,2.8,0.8,4.1c0.5,1.2,1.3,2.4,2.2,3.4c0.9,1,1.9,1.8,3.1,2.4
	c1.2,0.6,2.5,0.9,3.8,0.9c1,0,1.9-0.2,2.6-0.6c0.7-0.3,1.3-0.8,1.8-1.2c0.5-0.5,0.8-1,1.1-1.5c0.2-0.5,0.4-1,0.6-1.3v4H23v-0.6h-3.5
	V0H12.3z M6.9,32.5c-0.7-0.5-1.3-1.2-1.6-2.1c-0.4-0.9-0.6-2-0.7-3.3c-0.1-1.5-0.1-2.9-0.1-4.4c0-1.4,0.1-2.7,0.2-3.8
	c0.1-1.1,0.4-2.1,0.8-2.9c0.4-0.8,0.9-1.4,1.6-1.8c0.7-0.4,1.6-0.6,2.6-0.6c1.1,0,2,0.2,2.7,0.6c0.7,0.4,1.3,0.9,1.8,1.5
	c0.3,0.4,0.6,0.9,0.8,1.4c0.2,0.5,0.4,1.1,0.5,1.8c0.1,0.7,0.2,1.5,0.2,2.4c0.1,0.9,0.1,1.9,0.1,3.1c0,1-0.1,2.1-0.2,3.1
	c-0.1,1-0.4,2-0.9,3c-0.4,0.8-1,1.6-1.8,2.1c-0.8,0.6-1.8,0.8-3,0.8C8.6,33.3,7.6,33,6.9,32.5z M29.7,1C29.3,1.5,29,2,29,2.7
	c0,0.7,0.2,1.3,0.7,1.8c0.5,0.5,1.1,0.7,1.7,0.7c0.7,0,1.2-0.2,1.7-0.7c0.5-0.5,0.7-1.1,0.7-1.8c0-0.7-0.2-1.2-0.7-1.7
	c-0.5-0.5-1-0.7-1.7-0.7C30.8,0.3,30.2,0.5,29.7,1z M64.6,13.3c-0.9,0.3-1.6,0.7-2.2,1.2c-0.6,0.5-1,1-1.3,1.6
	c-0.3,0.6-0.4,1.3-0.4,1.9c0,0.6,0.1,1.1,0.4,1.4c0.2,0.4,0.9,0.6,1.8,0.6c0.6,0,1-0.1,1.3-0.4c0.3-0.3,0.4-0.7,0.4-1.1
	c0-0.2,0-0.6-0.1-1.1c-0.1-0.5-0.1-1-0.1-1.6c0-0.8,0.3-1.4,0.9-1.7c0.7-0.4,1.5-0.6,2.5-0.6c0.7,0,1.3,0.1,1.8,0.3
	c0.4,0.2,0.8,0.5,1,1c0.2,0.4,0.4,0.9,0.5,1.5c0.1,0.6,0.1,1.2,0.1,2c0,0.9-0.1,1.7-0.2,2.2c-0.1,0.5-0.4,1-0.7,1.3
	c-0.4,0.3-0.9,0.6-1.5,0.9c-0.6,0.2-1.4,0.5-2.4,0.9c-0.8,0.3-1.7,0.5-2.5,0.8c-0.8,0.2-1.6,0.6-2.2,1c-0.7,0.4-1.2,0.9-1.6,1.5
	c-0.4,0.6-0.6,1.5-0.6,2.6c0,0.5,0.1,1,0.2,1.5c0.2,0.5,0.5,1,0.9,1.4c0.4,0.4,1,0.8,1.8,1.1c0.7,0.3,1.7,0.5,3,0.5
	c1.1,0,2-0.1,2.7-0.4c0.7-0.2,1.3-0.6,1.7-0.9c0.4-0.4,0.8-0.8,1-1.2c0.2-0.4,0.4-0.8,0.6-1.1c0.2,1.1,0.7,2,1.3,2.7
	c0.7,0.6,1.7,0.9,3.1,0.9c0.8,0,1.4-0.1,2-0.4c0.5-0.2,1-0.5,1.4-0.8l-0.4-0.5c-0.3,0.2-0.7,0.4-1,0.6c-0.3,0.1-0.7,0.2-1,0.2
	c-0.5,0-0.9-0.2-1.2-0.5c-0.3-0.3-0.4-0.9-0.4-1.8V19.2c0-0.8-0.1-1.6-0.4-2.4c-0.2-0.8-0.7-1.5-1.2-2c-0.6-0.6-1.3-1.1-2.2-1.4
	c-0.9-0.4-2.1-0.6-3.5-0.6C66.6,12.9,65.5,13,64.6,13.3L64.6,13.3z M64.8,32.6c-0.4-0.2-0.7-0.5-1-0.9c-0.2-0.4-0.4-0.9-0.5-1.3
	c-0.1-0.5-0.1-1-0.1-1.4c0-1.1,0.3-2,0.8-2.7c0.5-0.7,1.2-1.3,2.2-1.7l3.4-1.4c0.9-0.4,1.4-0.8,1.6-1.2v4.6c0,0.6-0.1,1.3-0.2,2.1
	c-0.1,0.7-0.3,1.4-0.6,2.1c-0.3,0.7-0.8,1.2-1.4,1.6c-0.6,0.4-1.4,0.6-2.4,0.6C65.8,33,65.3,32.9,64.8,32.6z M92.6,13.6
	c-0.9,0.4-1.6,0.9-2.2,1.5c-0.6,0.5-1,1.1-1.4,1.8c-0.3,0.6-0.6,1.1-0.9,1.5v-4.9h-7.2v0.6h3.5v18.5h-3.5v0.6h10.8v-0.6h-3.5V22.2
	c0-1.2,0.2-2.4,0.5-3.4c0.4-1,0.9-1.9,1.6-2.7c0.6-0.7,1.4-1.4,2.3-1.8c0.8-0.4,1.8-0.6,2.7-0.6c1.2,0,2,0.4,2.6,1.2
	c0.6,0.8,0.9,1.8,0.9,3v14.9h-3.5v0.6H106v-0.6h-3.5V19.2c0-2.2-0.6-3.7-1.9-4.7c-1.2-1-2.8-1.5-4.8-1.5
	C94.6,13,93.5,13.2,92.6,13.6L92.6,13.6z M52.1,13.5v0.6h3.7l-6,14.5L44,14.1h3.7v-0.6H36.8v0.6h3.1l8.2,20.7l8.5-20.7H59v-0.6
	L52.1,13.5L52.1,13.5z M26.1,13.5v0.6h3.5v18.5h-3.5v0.6h10.8v-0.6h-3.5V13.5C33.4,13.5,26.1,13.5,26.1,13.5z M0.3,38H106v-0.7H0.3
	V38z"/>
</svg>
